<svg width="51" height="51" viewBox="0 0 51 51" fill="none" xmlns="http://www.w3.org/2000/svg">
<g clip-path="url(#clip0_2065_1166)">
<circle cx="25.7544" cy="25.5374" r="24.8828" fill="#252424"/>
<circle cx="25.7544" cy="25.5374" r="24.3172" stroke="white" stroke-opacity="0.42" stroke-width="1.13103" style="mix-blend-mode:overlay"/>
<path d="M36.3807 25.5069L39.7302 25.4693C39.8708 25.4677 39.9695 25.621 39.9114 25.7562C39.4725 26.7745 38.8677 27.7039 38.1244 28.5021L25.6972 41.8701C25.4627 42.1228 25.0719 42.1272 24.8318 41.8799L12.1072 28.7946C11.8535 28.5334 11.6143 28.2569 11.3908 27.9666C11.3675 27.9369 11.3525 27.9009 11.3478 27.8626C11.343 27.8243 11.3486 27.7855 11.364 27.7505C11.3793 27.7154 11.4037 27.6857 11.4344 27.6648C11.4651 27.6438 11.5009 27.6324 11.5375 27.6319L17.4189 27.5658C17.7301 27.5643 18.0345 27.4706 18.2973 27.2953C18.5601 27.1201 18.7707 26.8704 18.9049 26.5748L19.6377 24.9845C19.6621 24.9316 19.6996 24.8866 19.7462 24.8542C19.7928 24.8218 19.8468 24.8032 19.9026 24.8003C19.9584 24.7975 20.014 24.8105 20.0634 24.838C20.1128 24.8655 20.1543 24.9065 20.1836 24.9567L24.466 32.3102C24.6118 32.5549 24.8683 32.7064 25.1404 32.7034C25.1509 32.7032 25.1613 32.6994 25.1718 32.6993C25.4543 32.6851 25.7106 32.5094 25.8332 32.2397L27.0256 29.6563C27.1278 29.4309 27.3425 29.2888 27.5833 29.2861L29.5793 29.2636C30.2667 29.2559 30.8725 28.8153 31.1196 28.1397L33.4034 21.9065C33.5081 21.6215 33.8934 21.6289 33.9885 21.9179L34.7759 24.3154C34.8904 24.6665 35.1072 24.9708 35.3954 25.1848C35.6835 25.3987 36.0283 25.5115 36.3807 25.5069Z" fill="url(#paint0_linear_2065_1166)"/>
<path d="M41.0956 24.2073C41.0844 24.2509 41.06 24.2895 41.026 24.3172C40.9921 24.3448 40.9505 24.3601 40.9075 24.3605L37.0262 24.4041C36.8943 24.4058 36.7652 24.3637 36.6571 24.2838C36.5491 24.2038 36.4677 24.0901 36.4244 23.9587L35.12 19.988C35.0116 19.6583 34.7264 19.4372 34.3948 19.4336C34.2349 19.4285 34.0775 19.4762 33.9447 19.57C33.8118 19.6637 33.7101 19.7989 33.6539 19.9566L30.8029 27.7389C30.758 27.8623 30.6788 27.9686 30.5757 28.0439C30.4726 28.1191 30.3503 28.1599 30.2248 28.1609L28.2289 28.1833C27.5903 28.1905 27.0188 28.5719 26.7394 29.1743L25.7616 31.2957L21.1853 23.4352C21.1122 23.3087 21.0079 23.2054 20.8837 23.1363C20.7594 23.0671 20.6197 23.0347 20.4794 23.0424C20.1934 23.0566 19.9406 23.2322 19.8145 23.5021L18.6222 26.0927C18.5165 26.3182 18.3053 26.4603 18.0645 26.463L11.2573 26.5395C11.2213 26.5399 11.1858 26.5299 11.1547 26.5106C11.1236 26.4913 11.0981 26.4635 11.0809 26.4301C9.23654 22.8026 9.73713 18.1902 12.6111 15.0902C16.0971 11.3376 21.7737 11.204 25.4185 14.7403C25.5314 14.8493 25.7058 14.8473 25.8162 14.7358C29.3806 11.1184 35.0587 11.1244 38.6282 14.7976C41.0828 17.326 41.9084 20.9459 41.0956 24.2073Z" fill="url(#paint1_linear_2065_1166)"/>
</g>
<defs>
<linearGradient id="paint0_linear_2065_1166" x1="25.5814" y1="21.7881" x2="25.8093" y2="42.0564" gradientUnits="userSpaceOnUse">
<stop offset="0.371754" stop-color="#FDD9FF"/>
<stop offset="0.734291" stop-color="#C1E7FF"/>
<stop offset="1" stop-color="#C1E7FF" stop-opacity="0"/>
</linearGradient>
<linearGradient id="paint1_linear_2065_1166" x1="14.7788" y1="14.9941" x2="33.4185" y2="33.6339" gradientUnits="userSpaceOnUse">
<stop offset="0.3125" stop-color="#DDD3EF"/>
<stop offset="0.666667" stop-color="#FDD9FF"/>
</linearGradient>
<clipPath id="clip0_2065_1166">
<rect width="49.7655" height="49.7655" fill="white" transform="translate(0.871643 0.654602)"/>
</clipPath>
</defs>
</svg>
